# xmcd
#
# Track frame offsets:
#	150
#	24600
#	52563
#	83234
#	106684
#	126836
#	161298
#	187371
#	212420
#	239531
#	268740
#
# Disc length: 3877 seconds
#
# Revision: 0
# Processed by: cddbd v1.5.2PL0 Copyright (c) Steve Scherf et al.
# Submitted via: EasyCDDAExtractor 15.3.0.1
#
DISCID=8c0f230b
DTITLE=Trong Phuc - RDCD - Bai Ca Dat Phuong Nam
DYEAR=2003
DGENRE=Tinh Khuc Bat Tu
TTITLE0=Cay Cau Dua
TTITLE1=Ru Nua Vang Trang
TTITLE2=Trang Hon Tui
TTITLE3=Tra Lai Thoi Gian
TTITLE4=Dieu Ly Buon
TTITLE5=Than Tho Voi Luc Binh
TTITLE6=Dem Cuoi
TTITLE7=Ben Cau Nho Nguoi
TTITLE8=Chuyen Tinh Song Huong
TTITLE9=Ky Niem Nao Buon
TTITLE10=Bai Ca Dat Phuong Nam
EXTD=
EXTT0=
EXTT1=
EXTT2=
EXTT3=
EXTT4=
EXTT5=
EXTT6=
EXTT7=
EXTT8=
EXTT9=
EXTT10=
PLAYORDER=
